PathFileType	4	(X/Y/Z)	Walk3.trc
DataRate	CameraRate	NumFrames	NumMarkers	Units	OrigDataRate	OrigDataStartFrame	OrigNumFrames
200.000000	200.000000	6	59	mm	200.000000	293	508
Frame#	Times		LFHD		RFHD		LBHD		RBHD		C7		T10		CLAV		STRN		RBack		LASI		RACR1		RUA1		RElbow		RFA1		RWRR		RWRU		RCAR		LACR1		LUA1		LElbow		LElbowM		LFA1		LWRR		LWRU		LCAR		RTH1		RTH3		RTH2		RTB1		RTB4		LTH1		LTH3		LTH2		LTH4		LLFC		LTB1		LTB2		LTB4		LMT1		LToe		LMMAL		RTB2		RTH4		LCAL		LTB3		RElbowM		LMT5		RTB3		LPSI		RPSI		LLMAL		RLFC		RASI		RMT1		RToe		RCAL		RMMAL		RMT5		RLMAL
			X1	Y1	Z1	X2	Y2	Z2	X3	Y3	Z3	X4	Y4	Z4	X5	Y5	Z5	X6	Y6	Z6	X7	Y7	Z7	X8	Y8	Z8	X9	Y9	Z9	X10	Y10	Z10	X11	Y11	Z11	X12	Y12	Z12	X13	Y13	Z13	X14	Y14	Z14	X15	Y15	Z15	X16	Y16	Z16	X17	Y17	Z17	X18	Y18	Z18	X19	Y19	Z19	X20	Y20	Z20	X21	Y21	Z21	X22	Y22	Z22	X23	Y23	Z23	X24	Y24	Z24	X25	Y25	Z25	X26	Y26	Z26	X27	Y27	Z27	X28	Y28	Z28	X29	Y29	Z29	X30	Y30	Z30	X31	Y31	Z31	X32	Y32	Z32	X33	Y33	Z33	X34	Y34	Z34	X35	Y35	Z35	X36	Y36	Z36	X37	Y37	Z37	X38	Y38	Z38	X39	Y39	Z39	X40	Y40	Z40	X41	Y41	Z41	X42	Y42	Z42	X43	Y43	Z43	X44	Y44	Z44	X45	Y45	Z45	X46	Y46	Z46	X47	Y47	Z47	X48	Y48	Z48	X49	Y49	Z49	X50	Y50	Z50	X51	Y51	Z51	X52	Y52	Z52	X53	Y53	Z53	X54	Y54	Z54	X55	Y55	Z55	X56	Y56	Z56	X57	Y57	Z57	X58	Y58	Z58	X59	Y59	Z59

293	1.465	-233.58	1417.7	-36.498	-243.66	1408.8	59.476	-370.25	1358.5	-65.272	-381.72	1354.3	67.439	-423.92	1268.2	-2.6393	-514.42	1068.2	7.7813	-284.22	1180	-4.4461	-236.69	1073.5	-5.4233	-471.49	1146	116.96	-308.06	819.22	-163.24	-350.08	1210.6	177.63	-326.52	1062.8	251.27	-330.6	933.6	278.61	-258.42	823.86	273.47	-231.05	729.32	230.46	-262.76	721.85	294.79	-205.84	675.46	278.11	-359.2	1214	-191.21	-347.68	1046.1	-259.08	-392.24	932.45	-272.89	-420.22	912.71	-207.1	-342.27	836.19	-307.06	-311.94	724.53	-290.28	-360.05	726.68	-331.51	-326.13	672.65	-333.64	-360.47	630.34	211.57	-359.48	460.66	177.45	-305.85	550.73	176.04	-421.99	270.95	114.32	-493.56	222.79	95.158	-351.64	654.06	-213.83	-329.11	488	-164.79	-289.74	587.64	-166.86	-340.27	570.75	-193.45	-295.7	400.87	-126.83	-271.73	303.08	-60.443	-299.27	214.36	-114.85	-281.25	215.82	-55.142	-209.3	33.198	-22.764	-157.71	29.297	-46.637	-313.18	72.415	-6.0578	-523.82	252.07	139.68	-361.78	545.33	196.93	-375.79	41.693	-40.077	-283.17	132.67	-51.139	-383.77	900.81	208.65	-252.12	19.689	-108.64	-557.76	171.29	77.323	-564.06	842.31	-41.461	-551.6	836.72	64.8	-333.2	57.24	-84.501	-397.91	380.53	160.64	-290.94	818.19	151.91	-597.84	55.685	32.914	-569.87	28.609	75.122	-686.11	196.55	42.976	-613.76	162.31	20.381	-635.34	67.025	114.56	-644.4	166.04	97.262
294	1.47	-228.3	1418.5	-36.942	-238.48	1409.5	59.03	-365.01	1359.3	-65.781	-376.56	1355.1	66.921	-418.8	1268.8	-3.2151	-509.15	1068.9	7.2767	-279.01	1180.9	-4.8233	-231.43	1074.5	-5.9926	-466.44	1146.8	116.34	-302.73	820.03	-163.55	-345.28	1211.5	177.15	-321.9	1063.8	250.96	-326.42	934.54	278.19	-254.51	824.6	273.37	-227.68	729.77	230.36	-259.12	722.66	294.87	-202.68	675.6	277.82	-353.82	1214.7	-191.61	-341.11	1046.9	-259.29	-385.4	932.97	-273.45	-413.84	913.18	-207.78	-334.24	836.96	-306.8	-302.85	725.74	-289.34	-350.68	727.17	-330.91	-316.16	673.49	-332.53	-353.24	630.87	211.28	-349.13	461.1	177.37	-297.18	552.16	175.73	-410.92	271.83	114.02	-482.91	224.03	94.97	-347.51	654.32	-214.11	-326.31	488.07	-165.06	-286	587.34	-167.48	-336.85	570.89	-193.79	-293.51	400.61	-127.04	-269.98	302.74	-60.734	-298.34	214.14	-115	-280.14	215.53	-55.353	-209.36	33.14	-22.717	-157.66	29.342	-46.575	-313.07	72.415	-6.0292	-512.75	253.43	139.64	-352.99	545.81	196.73	-375.8	41.719	-40.092	-282.66	132.4	-51.269	-379.34	901.92	207.94	-252.14	19.734	-108.66	-547.28	172.85	77.247	-558.65	843.24	-41.621	-546.13	837.13	64.736	-333.16	57.231	-84.503	-386.77	380.97	160.55	-285.26	818.69	151.21	-587.29	57.446	33.953	-559.86	29.215	76.516	-675.81	198.48	42.894	-603.42	164.08	20.369	-625.1	69.364	115.12	-634.02	168.15	97.317
295	1.475	-223.05	1419.2	-37.356	-233.3	1410.3	58.617	-359.79	1360.1	-66.256	-371.4	1355.9	66.438	-413.66	1269.5	-3.7504	-503.88	1069.5	6.7879	-273.78	1181.7	-5.1674	-226.17	1075.5	-6.5138	-461.39	1147.5	115.73	-297.47	820.75	-163.83	-340.48	1212.4	176.72	-317.34	1064.8	250.7	-322.22	935.41	277.83	-250.57	825.28	273.31	-224.29	730.17	230.27	-255.44	723.42	294.98	-199.48	675.7	277.53	-348.45	1215.5	-191.98	-334.57	1047.6	-259.49	-378.58	933.45	-274.03	-407.46	913.59	-208.48	-326.21	837.72	-306.55	-293.74	726.98	-288.42	-341.27	727.68	-330.31	-306.14	674.38	-331.44	-346.06	631.45	210.99	-338.94	461.68	177.2	-288.65	553.65	175.38	-399.75	272.78	113.55	-472.04	225.2	94.654	-343.43	654.58	-214.35	-323.53	488.15	-165.3	-282.3	587.04	-168.04	-333.46	571.03	-194.09	-291.34	400.35	-127.23	-268.26	302.4	-60.994	-297.41	213.92	-115.13	-279.04	215.25	-55.542	-209.42	33.086	-22.675	-157.61	29.382	-46.53	-312.97	72.418	-5.9973	-501.49	254.6	139.51	-344.32	546.4	196.49	-375.8	41.744	-40.104	-282.16	132.12	-51.38	-374.9	902.94	207.33	-252.16	19.771	-108.68	-536.48	174.2	77.082	-553.27	844.16	-41.801	-540.71	837.57	64.643	-333.13	57.224	-84.503	-375.72	381.56	160.35	-279.62	819.18	150.62	-576.01	59.019	34.988	-548.9	29.88	77.87	-665.31	199.8	42.826	-592.78	165.48	20.34	-614.09	71.408	115.75	-623.28	169.84	97.38
296	1.48	-217.81	1419.9	-37.74	-228.15	1411.1	58.234	-354.56	1360.8	-66.697	-366.24	1356.7	65.99	-408.49	1270.1	-4.2449	-498.61	1070.1	6.3147	-268.55	1182.5	-5.4801	-220.91	1076.4	-6.9871	-456.33	1148.2	115.14	-292.28	821.39	-164.05	-335.68	1213.2	176.33	-312.82	1065.6	250.48	-318.01	936.21	277.53	-246.6	825.89	273.28	-220.87	730.53	230.2	-251.72	724.12	295.11	-196.24	675.78	277.26	-343.07	1216.1	-192.34	-328.06	1048.3	-259.68	-371.77	933.91	-274.61	-401.09	913.95	-209.18	-318.18	838.48	-306.31	-284.61	728.24	-287.51	-331.83	728.21	-329.72	-296.09	675.33	-330.37	-338.96	632.09	210.71	-328.94	462.37	176.96	-280.26	555.18	174.98	-388.48	273.79	112.92	-460.95	226.28	94.233	-339.37	654.81	-214.55	-320.75	488.23	-165.51	-278.62	586.75	-168.54	-330.07	571.17	-194.35	-289.18	400.09	-127.4	-266.56	302.06	-61.214	-296.47	213.71	-115.24	-277.96	214.96	-55.703	-209.47	33.036	-22.638	-157.55	29.416	-46.499	-312.87	72.424	-5.9605	-490.05	255.59	139.3	-335.78	547.09	196.22	-375.8	41.768	-40.111	-281.68	131.86	-51.468	-370.46	903.89	206.8	-252.17	19.798	-108.69	-525.38	175.32	76.849	-547.9	845.08	-42.002	-535.35	838.05	64.521	-333.09	57.218	-84.499	-364.76	382.28	160.04	-274	819.66	150.13	-564.04	60.377	35.996	-537.03	30.577	79.16	-654.61	200.5	42.78	-581.83	166.51	20.302	-602.35	73.121	116.41	-612.18	171.1	97.453
297	1.485	-212.6	1420.7	-38.095	-223	1411.8	57.88	-349.35	1361.5	-67.105	-361.07	1357.4	65.576	-403.3	1270.7	-4.6984	-493.34	1070.7	5.8557	-263.3	1183.3	-5.7628	-215.63	1077.2	-7.4124	-451.27	1148.8	114.57	-287.14	821.97	-164.24	-330.87	1214	175.99	-308.36	1066.4	250.32	-313.78	936.93	277.28	-242.6	826.44	273.28	-217.42	730.83	230.15	-247.97	724.75	295.27	-192.96	675.83	277.02	-337.7	1216.8	-192.67	-321.58	1049	-259.86	-364.97	934.33	-275.2	-394.73	914.25	-209.9	-310.17	839.24	-306.08	-275.46	729.52	-286.62	-322.38	728.76	-329.14	-286.01	676.33	-329.32	-331.93	632.78	210.43	-319.12	463.17	176.65	-272.01	556.76	174.55	-377.12	274.86	112.16	-449.64	227.25	93.729	-335.33	655.03	-214.7	-317.96	488.31	-165.69	-274.97	586.47	-168.98	-326.68	571.29	-194.56	-287.02	399.83	-127.53	-264.88	301.72	-61.391	-295.52	213.51	-115.32	-276.89	214.67	-55.831	-209.52	32.986	-22.603	-157.49	29.44	-46.478	-312.76	72.429	-5.9174	-478.44	256.4	139.03	-327.37	547.86	195.92	-375.8	41.793	-40.113	-281.2	131.59	-51.529	-366.02	904.76	206.37	-252.18	19.817	-108.69	-513.97	176.2	76.567	-542.56	846.01	-42.223	-530.05	838.56	64.368	-333.05	57.216	-84.491	-353.88	383.14	159.64	-268.43	820.15	149.76	-551.42	61.501	36.952	-524.32	31.284	80.361	-643.69	200.58	42.76	-570.58	167.16	20.26	-589.91	74.474	117.09	-600.73	171.9	97.54
298	1.49	-207.42	1421.4	-38.424	-217.87	1412.6	57.554	-344.14	1362.1	-67.481	-355.91	1358	65.196	-398.07	1271.3	-5.1114	-488.06	1071.3	5.4091	-258.04	1184	-6.0167	-210.35	1078	-7.7893	-446.2	1149.4	114.02	-282.05	822.47	-164.39	-326.04	1214.7	175.7	-303.95	1067.1	250.19	-309.51	937.59	277.08	-238.57	826.92	273.3	-213.94	731.09	230.11	-244.19	725.32	295.45	-189.64	675.86	276.81	-332.31	1217.3	-192.98	-315.15	1049.6	-260.03	-358.2	934.72	-275.78	-388.37	914.51	-210.62	-302.16	840	-305.85	-266.31	730.83	-285.74	-312.92	729.32	-328.56	-275.89	677.4	-328.29	-324.98	633.5	210.16	-309.47	464.07	176.28	-263.9	558.38	174.1	-365.66	275.97	111.3	-438.13	228.12	93.162	-331.29	655.24	-214.81	-315.16	488.38	-165.84	-271.31	586.18	-169.36	-323.26	571.41	-194.73	-284.84	399.58	-127.65	-263.21	301.38	-61.524	-294.54	213.32	-115.37	-275.82	214.38	-55.926	-209.55	32.938	-22.571	-157.42	29.455	-46.467	-312.66	72.434	-5.8667	-466.69	257.03	138.71	-319.09	548.7	195.59	-375.8	41.819	-40.108	-280.73	131.33	-51.561	-361.56	905.55	206.02	-252.18	19.829	-108.7	-502.27	176.83	76.253	-537.24	846.93	-42.463	-524.8	839.13	64.187	-333	57.217	-84.476	-343.08	384.12	159.16	-262.88	820.64	149.49	-538.18	62.382	37.836	-510.79	31.978	81.449	-632.55	200.06	42.773	-559.02	167.42	20.217	-576.8	75.449	117.77	-588.93	172.26	97.641
